<svg width="128" height="128" viewBox="0 0 128 128" fill="none" xmlns="http://www.w3.org/2000/svg">
    <path
        d="M28.5 104.959C28.5 105.113 28.5711 105.259 28.6926 105.354L29 104.959L28.6927 105.354L28.6929 105.354L28.6936 105.354L28.6967 105.357L28.7091 105.366L28.7578 105.404L28.9463 105.552C29.1104 105.68 29.3489 105.867 29.6463 106.1C30.2412 106.567 31.0718 107.22 32.0145 107.967C33.9007 109.461 36.2323 111.327 38.022 112.818C40.8477 115.173 44.6043 117.755 47.6441 119.742C49.1661 120.738 50.5124 121.586 51.4783 122.186C51.9614 122.486 52.3494 122.724 52.6169 122.887C52.7506 122.969 52.8542 123.032 52.9245 123.074L53.0046 123.123L53.0251 123.135L53.0303 123.138L53.0317 123.139L53.0321 123.139C53.0322 123.139 53.0322 123.139 53.2895 122.71L53.0322 123.139C53.1867 123.232 53.3791 123.234 53.5358 123.146C53.6926 123.057 53.7895 122.891 53.7895 122.71V10.6039C53.7895 10.4182 53.6866 10.2478 53.5222 10.1614C53.3579 10.0749 53.1592 10.0867 53.0062 10.1919L53.2895 10.6039C53.0062 10.1919 53.0061 10.1919 53.006 10.192L53.0054 10.1924L53.0032 10.1939L52.9948 10.1997L52.9619 10.2224L52.8337 10.3114C52.7212 10.3897 52.5552 10.5057 52.3408 10.6569C51.9121 10.9592 51.2898 11.4021 50.5141 11.9656C48.9628 13.0925 46.7973 14.702 44.3391 16.6334C39.4269 20.493 33.329 25.6513 28.63 30.8202C28.5464 30.9122 28.5 31.0321 28.5 31.1565V104.959Z"
        fill="#2B99D8" stroke="#2B99D8" stroke-linejoin="round" />
    <path
        d="M73.8421 5L73.9813 4.51976C73.8303 4.476 73.6675 4.50581 73.5418 4.60026C73.4161 4.6947 73.3421 4.84277 73.3421 5V90.9474C73.3421 91.1062 73.4175 91.2555 73.5453 91.3498C73.6731 91.444 73.8381 91.472 73.9898 91.4251L73.8421 90.9474C73.9898 91.4251 73.9899 91.425 73.99 91.425L73.9904 91.4249L73.9918 91.4244L73.997 91.4228L74.0168 91.4166L74.0928 91.3927C74.1593 91.3716 74.257 91.3402 74.3829 91.2991C74.6348 91.2169 74.9996 91.0954 75.4535 90.9377C76.3612 90.6223 77.6262 90.1618 79.0576 89.5803C81.9119 88.4209 85.4604 86.7679 88.1493 84.8123C90.695 82.9609 93.7592 79.8936 96.1708 77.3112C97.3804 76.0158 98.4328 74.835 99.1828 73.978C99.5579 73.5494 99.8575 73.2015 100.064 72.9606C100.167 72.8402 100.246 72.7465 100.3 72.6827L100.362 72.61L100.377 72.5912L100.381 72.5864L100.383 72.5851L100.383 72.5848C100.383 72.5847 100.383 72.5846 100 72.2632L100.383 72.5846C100.459 72.4946 100.5 72.3808 100.5 72.2632V23.6842C100.5 23.6305 100.491 23.5771 100.474 23.5261C100.213 22.7415 99.6314 21.8247 98.8616 20.8512C98.0846 19.8687 97.0872 18.7934 95.9563 17.6888C93.6941 15.4792 90.8728 13.1286 88.1506 11.136C85.2982 9.04818 81.75 7.39495 78.9325 6.267C77.5205 5.70168 76.2849 5.26557 75.4018 4.97059C74.9602 4.82307 74.6064 4.71074 74.3623 4.63512C74.2403 4.59731 74.1457 4.56866 74.0813 4.54938L74.0076 4.52748L73.9884 4.52184L73.9833 4.52036L73.9819 4.51995L73.9815 4.51983C73.9814 4.51979 73.9813 4.51976 73.8421 5Z"
        fill="#7E2EFF" stroke="#6D28D9" stroke-linejoin="round" />
</svg>