<svg width="128" height="128" viewBox="0 0 128 128" fill="none" xmlns="http://www.w3.org/2000/svg">
    <path d="M31.63 31.2163C31.5464 31.3083 31.5 31.4283 31.5 31.5526V105.355C31.5 105.509 31.5711 105.655 31.6926 105.75L32 105.355L31.6927 105.75L31.6929 105.75L31.6936 105.75L31.6967 105.753L31.7091 105.762L31.7578 105.801L31.9463 105.948C32.1104 106.076 32.3489 106.263 32.6463 106.496C33.2412 106.963 34.0718 107.616 35.0145 108.363C36.9007 109.857 39.2323 111.723 41.022 113.214C43.8477 115.569 47.6043 118.151 50.6441 120.139C52.1661 121.134 53.5124 121.982 54.4783 122.582C54.9614 122.883 55.3494 123.12 55.6169 123.284C55.7506 123.365 55.8542 123.428 55.9245 123.47L56.0046 123.519L56.0251 123.531L56.0303 123.534L56.0317 123.535L56.0321 123.535C56.0322 123.535 56.0322 123.535 56.2895 123.107L56.0322 123.535C56.1867 123.628 56.3791 123.63 56.5358 123.542C56.6926 123.453 56.7895 123.287 56.7895 123.107V11C56.7895 10.8143 56.6866 10.6439 56.5222 10.5575C56.3579 10.471 56.1592 10.4828 56.0062 10.588L56.2895 11C56.0062 10.588 56.0061 10.588 56.006 10.5881L56.0054 10.5885L56.0032 10.5901L55.9948 10.5959L55.9619 10.6186L55.8337 10.7075C55.7212 10.7859 55.5552 10.9019 55.3408 11.053C54.9121 11.3553 54.2898 11.7982 53.5141 12.3617C51.9628 13.4886 49.7973 15.0981 47.3391 17.0295C42.4269 20.8891 36.329 26.0474 31.63 31.2163Z" fill="#2B99D8" stroke="#2B99D8" stroke-linejoin="round"/>
    <path d="M99.9999 23.6842C100.309 23.2909 100.309 23.2908 100.309 23.2908L100.308 23.2906L100.307 23.2897L100.303 23.2863L100.286 23.2729L100.219 23.2203L99.9597 23.0181C99.7343 22.8422 99.4067 22.5871 98.9975 22.2701C98.1793 21.636 97.0348 20.754 95.7294 19.762C93.1206 17.7795 89.8624 15.3521 87.2822 13.5873L74.1243 4.58731C73.9712 4.4826 73.7728 4.47123 73.6087 4.55777C73.4447 4.64431 73.342 4.81453 73.342 5V90.9474C73.342 91.1331 73.445 91.3035 73.6093 91.3899C73.7737 91.4763 73.9724 91.4646 74.1254 91.3593L73.842 90.9474C74.1254 91.3593 74.1255 91.3593 74.1255 91.3592L74.1258 91.359L74.1271 91.3582L74.1319 91.3548L74.1512 91.3416L74.2267 91.2896L74.5177 91.089C74.771 90.9144 75.1387 90.6606 75.5964 90.3442C76.5117 89.7112 77.7871 88.8273 79.2276 87.8234C82.1077 85.8161 85.6507 83.3268 88.294 81.4044C90.0668 80.1151 92.015 78.7369 93.8208 77.4595C94.5624 76.9349 95.28 76.4272 95.9515 75.9498C97.1027 75.1312 98.1196 74.4005 98.8857 73.8274C99.2684 73.5411 99.5926 73.2912 99.8412 73.0876C100.075 72.8961 100.282 72.7139 100.394 72.571C100.451 72.4984 100.473 72.4269 100.478 72.4105L100.479 72.4093C100.487 72.3821 100.493 72.3588 100.495 72.3452C100.501 72.3171 100.504 72.2903 100.506 72.2711C100.511 72.2305 100.514 72.1815 100.517 72.1291C100.523 72.0222 100.529 71.8731 100.534 71.6875C100.544 71.315 100.552 70.7793 100.559 70.1055C100.573 68.757 100.582 66.8464 100.587 64.5627C100.596 59.995 100.59 53.93 100.577 47.8739C100.564 41.8177 100.545 35.7697 100.529 31.2359C100.521 28.969 100.514 27.0805 100.508 25.7588L100.502 24.2248L100.501 23.8207L100.5 23.7171L100.5 23.6909L100.5 23.6843L100.5 23.6826C100.5 23.6823 100.5 23.6821 99.9999 23.6842ZM99.9999 23.6842L100.309 23.2909C100.429 23.3852 100.499 23.5293 100.5 23.6821L99.9999 23.6842Z" fill="#8C5CF9" stroke="#8C5CF9" stroke-linejoin="round"/>
</svg>
